<?xml version="1.0" standalone="no"?>
<!DOCTYPE svg PUBLIC "-//W3C//DTD SVG 20010904//EN"
 "http://www.w3.org/TR/2001/REC-SVG-20010904/DTD/svg10.dtd">
<svg version="1.0" xmlns="http://www.w3.org/2000/svg"
 width="424.000000pt" height="456.000000pt" viewBox="0 0 424.000000 456.000000"
 preserveAspectRatio="xMidYMid meet">

<g transform="translate(0.000000,456.000000) scale(0.100000,-0.100000)"
fill="#000000" stroke="none">
<path d="M2215 3761 c-22 -9 -792 -775 -833 -829 -32 -42 -35 -112 -6 -161 38
-65 137 -91 201 -51 18 11 145 132 283 270 137 137 252 250 255 250 3 0 5
-348 5 -774 0 -732 -1 -778 -19 -835 -46 -148 -172 -269 -328 -314 -24 -7
-256 -13 -650 -16 l-611 -6 -27 -25 c-84 -78 -69 -202 29 -250 45 -21 46 -21
658 -17 698 4 671 1 848 92 185 96 323 270 383 483 21 75 21 93 25 870 1 435
6 792 9 792 3 0 121 -115 263 -256 141 -141 268 -263 281 -270 28 -15 87 -18
121 -5 36 14 77 60 90 102 24 82 24 83 -416 523 -222 223 -417 411 -434 420
-33 17 -94 20 -127 7z"/>
</g>
</svg>
